<?xml version="1.0" encoding="UTF-8"?>
<svg id="Capa_1" xmlns="http://www.w3.org/2000/svg" version="1.1" viewBox="0 0 1058.61 1058.61">
  <!-- Generator: Adobe Illustrator 29.4.0, SVG Export Plug-In . SVG Version: 2.1.0 Build 152)  -->
  <defs>
    <style>
      .st0 {
        fill: #cbff00;
      }
    </style>
  </defs>
  <path class="st0" d="M989.61,529.3c0-51.1-62.03-67.94-127.71-85.77-21.85-5.93-56.66-15.38-70.58-23.1,4.17-15.82,22.85-48.6,34.55-69.13,32.93-57.79,64.04-112.37,28.92-147.48-35.13-35.13-89.7-4.03-147.5,28.92-20.53,11.7-53.3,30.38-69.12,34.54-7.72-13.92-17.17-48.73-23.1-70.58-17.84-65.68-34.68-127.71-85.78-127.71s-67.94,62.03-85.76,127.71c-5.93,21.85-15.38,56.66-23.1,70.58-15.82-4.17-48.6-22.85-69.13-34.55-57.79-32.93-112.37-64.06-147.49-28.92-35.12,35.12-4.02,89.7,28.92,147.5,11.7,20.53,30.38,53.3,34.54,69.12-13.92,7.72-48.73,17.17-70.58,23.1-65.68,17.84-127.71,34.68-127.71,85.77s62.03,67.94,127.71,85.76c21.85,5.93,56.66,15.38,70.58,23.11-4.17,15.82-22.85,48.6-34.55,69.12-32.93,57.79-64.04,112.37-28.92,147.5,35.12,35.1,89.7,4,147.49-28.92,20.53-11.7,53.3-30.38,69.13-34.54,7.72,13.92,17.17,48.73,23.1,70.58,17.83,65.68,34.66,127.71,85.76,127.71s67.94-62.03,85.76-127.71c5.93-21.85,15.38-56.67,23.1-70.58,15.83,4.17,48.59,22.85,69.12,34.54,57.79,32.93,112.37,64.04,147.5,28.92,35.12-35.12,4.02-89.7-28.92-147.5-11.7-20.53-30.38-53.29-34.54-69.12,13.92-7.72,48.73-17.17,70.58-23.11,65.68-17.83,127.71-34.66,127.71-85.76h.02Z"/>
</svg>